<svg width="1127" height="124" viewBox="0 0 1127 124" fill="none" xmlns="http://www.w3.org/2000/svg">
<g opacity="0.15">
<path d="M60.8602 244.84L58.7616 245.19L15.3899 18.1881C13.6411 9.7936 8.74428 6.29589 0.699539 3.49771L0 3.14794L0.699539 0H39.1744L38.4749 3.14794L38.1251 3.49771C33.2283 4.8968 30.7799 9.7936 30.7799 14.3406C30.7799 15.7397 30.7799 16.789 31.1297 17.8383L69.2548 219.307L139.559 98.2858L124.169 18.1881C122.42 9.7936 117.523 6.29589 109.478 3.49771L108.779 3.14794L109.478 0H148.653L147.953 3.14794L147.604 3.49771C142.357 4.8968 139.909 9.7936 139.909 14.3406C139.909 15.7397 139.909 16.789 140.258 17.8383L151.101 77.999L185.729 18.8877C187.478 16.0895 188.527 12.9415 188.527 9.7936C188.527 7.34521 187.827 4.19727 185.379 3.49771L185.029 3.14794L185.379 0H215.459L214.76 3.14794L214.41 3.49771C205.316 5.94612 197.271 11.5425 192.374 19.5872L152.85 87.0931L178.034 219.307L294.857 18.8877C296.256 16.0895 297.656 12.9415 297.656 9.7936C297.656 7.34521 296.606 4.19727 294.508 3.49771L293.808 3.14794L294.508 0H324.238L323.539 3.14794L323.189 3.49771C314.445 5.94612 306.05 11.5425 301.503 19.5872L169.989 244.84L167.541 245.19L141.308 107.38L60.8602 244.84Z" fill="black"/>
<path d="M414.977 120.671L415.676 131.514C408.681 159.496 383.147 245.54 326.135 245.54C293.256 245.54 271.92 216.858 274.019 171.388C276.817 106.331 325.085 50.7169 378.95 50.7169C406.582 50.7169 424.071 65.4073 424.071 93.0392V93.389L420.223 97.5862L419.873 96.1872C420.923 72.0529 409.03 59.1114 384.546 59.1114C335.578 59.1114 293.606 109.129 290.808 168.94C288.709 211.612 307.597 236.445 332.43 236.445C379.3 236.445 407.631 147.953 414.977 120.671ZM418.124 238.194V242.392C418.124 243.441 417.425 244.14 416.376 244.84C415.676 245.19 414.627 245.889 413.228 246.239C411.129 246.939 408.331 247.638 407.282 247.638C397.138 247.638 396.089 236.795 396.089 229.8C396.089 220.006 397.838 210.562 399.936 200.769L427.219 54.2146H443.658L413.927 208.114C412.528 216.159 410.779 224.903 410.779 233.298C410.779 234.347 410.779 236.446 411.129 238.544C411.479 239.593 411.829 240.293 412.178 240.993C412.528 241.692 412.878 242.042 413.228 242.042C413.927 242.042 414.627 241.692 414.977 240.993C415.676 240.643 416.376 239.943 416.725 239.593L418.124 238.194Z" fill="black"/>
<path d="M438.365 244.84L471.243 78.6986C471.593 76.9497 471.943 74.8511 471.943 72.7525C471.943 62.9589 465.647 61.21 456.553 61.21H455.853L457.602 55.6137H491.18L472.293 151.451C490.83 90.9406 519.861 57.3625 548.193 57.3625C554.839 57.3625 565.332 59.1114 565.332 67.8557C565.332 72.7525 560.435 80.0977 555.888 77.6493C550.641 74.5013 545.395 73.1022 540.148 73.1022C503.422 73.1022 473.692 145.155 463.548 196.222L454.104 244.14V244.84H438.365Z" fill="black"/>
<path d="M554.882 244.84L586.712 82.5461C587.061 79.3981 587.761 76.2502 587.761 72.7525C587.761 62.6091 582.514 58.0621 572.371 56.3132H571.322L573.42 50.7169H608.048L584.963 171.738C604.55 100.035 638.828 50.7169 669.957 50.7169C693.392 50.7169 704.934 79.0483 696.89 121.371L686.047 179.083C705.284 103.532 740.961 50.7169 773.14 50.7169C796.574 50.7169 808.117 79.0483 800.072 121.371L780.135 228.401C779.785 230.499 779.436 232.248 779.436 234.347C779.436 235.046 779.436 237.145 779.785 238.544C780.485 240.293 781.185 241.342 782.234 241.342C783.283 241.342 783.983 240.643 784.682 239.593L786.081 237.845V242.741C783.983 245.889 780.835 247.638 776.987 247.638C767.893 247.638 763.696 240.643 763.696 232.598C763.696 230.849 763.696 229.1 764.046 227.002L784.682 119.272C791.678 83.2456 783.633 59.4611 766.494 59.4611C726.62 59.4611 681.849 191.675 676.253 232.948C676.603 231.898 676.603 231.199 676.603 230.15L677.302 226.652L676.953 228.401C676.603 230.499 676.253 232.248 676.253 234.347C676.253 235.046 676.253 237.145 676.603 238.544C677.302 240.293 678.002 241.342 679.051 241.342C680.101 241.342 680.8 240.643 681.5 239.593L682.899 237.845V242.741C680.8 245.889 677.652 247.638 673.805 247.638C664.711 247.638 660.513 240.643 660.513 232.598C660.513 230.849 660.513 229.1 660.863 227.002L681.5 119.272C688.495 83.2456 680.45 59.4611 663.312 59.4611C627.635 59.4611 588.111 165.092 576.218 216.858L573.07 232.948V232.598L573.42 230.15C573.42 231.199 573.42 231.898 573.07 232.598L570.622 244.84H554.882Z" fill="black"/>
<path d="M839.55 17.4886C839.55 9.44383 845.496 2.44841 854.24 2.44841C860.186 2.44841 865.083 5.59635 865.083 11.5425C865.083 20.2868 858.438 26.9324 849.693 26.9324C843.747 26.9324 839.55 23.7845 839.55 17.4886ZM831.855 238.194V242.392C831.855 243.441 831.155 244.14 830.106 244.84C829.406 245.19 828.357 245.889 826.958 246.239C824.859 246.939 822.061 247.638 821.012 247.638C810.869 247.638 809.819 236.795 809.819 229.8C809.819 220.006 811.568 210.562 813.317 200.769L836.052 82.5461C836.752 79.0483 837.102 75.9004 837.102 72.7525C837.102 62.2593 832.205 58.0621 821.712 56.3132H821.012L822.761 50.7169H857.738L827.658 208.114C826.259 216.159 824.51 224.903 824.51 233.298C824.51 234.347 824.51 236.446 824.859 238.544C825.209 239.593 825.209 240.293 825.909 240.993C826.259 241.692 826.608 242.042 826.958 242.042C827.658 242.042 828.007 241.692 828.707 240.993C829.406 240.643 830.106 239.943 830.456 239.593L831.855 238.194Z" fill="black"/>
<path d="M971.81 222.455H972.16C972.51 222.804 973.209 223.504 973.209 223.854C973.209 224.203 973.209 224.203 973.209 224.203C973.209 224.553 973.209 224.903 972.859 225.253C962.016 238.544 937.882 245.54 921.093 245.54C876.322 245.54 858.134 209.513 858.134 170.339C858.134 122.42 889.614 48.968 948.025 48.968C977.056 48.968 995.944 69.9543 993.496 93.389C988.949 135.362 917.246 163.343 879.47 139.559L879.12 135.711C915.147 154.599 969.711 136.761 976.707 97.2365C979.855 78.6986 973.209 53.515 947.676 53.515C880.869 53.515 835.399 239.244 929.138 239.244C946.626 239.244 958.169 233.298 971.46 222.804L971.81 222.455Z" fill="black"/>
<path d="M996.299 195.522L996.999 199.37C1000.5 220.006 1014.49 240.643 1038.27 240.643C1063.81 240.643 1088.29 215.459 1088.29 190.625C1088.29 180.482 1083.74 173.487 1077.1 167.541C1069.75 161.594 1060.31 156.698 1051.56 152.85C1033.38 143.756 1014.49 133.613 1014.49 110.178C1014.49 75.9004 1046.32 46.8694 1080.94 46.8694C1099.48 46.8694 1118.02 55.2639 1126.41 72.4027L1126.76 72.7525L1121.52 98.2858L1120.82 95.1378C1115.92 74.8511 1105.08 51.7662 1080.59 51.7662C1053.66 51.7662 1029.18 79.3981 1029.18 104.931C1029.18 115.075 1033.38 122.42 1040.37 128.016C1043.87 131.164 1047.37 133.613 1051.91 136.061C1056.11 138.509 1060.66 140.608 1065.55 143.057C1084.09 151.801 1102.98 161.594 1102.98 185.379C1102.98 220.706 1071.5 245.54 1037.22 245.54C1019.03 245.54 998.398 238.544 991.403 220.006L996.299 195.522Z" fill="black"/>
</g>
</svg>
