<svg width="24" height="25" viewBox="0 0 24 25" fill="none" xmlns="http://www.w3.org/2000/svg">
<path d="M16 7.5C16 7.23478 16.1054 6.98043 16.2929 6.79289C16.4804 6.60536 16.7348 6.5 17 6.5C17.2652 6.5 17.5196 6.60536 17.7071 6.79289C17.8946 6.98043 18 7.23478 18 7.5C18 7.76522 17.8946 8.01957 17.7071 8.20711C17.5196 8.39464 17.2652 8.5 17 8.5C16.7348 8.5 16.4804 8.39464 16.2929 8.20711C16.1054 8.01957 16 7.76522 16 7.5Z" fill="black"/>
<path fill-rule="evenodd" clip-rule="evenodd" d="M12 7.75C10.7402 7.75 9.53204 8.25045 8.64124 9.14124C7.75045 10.032 7.25 11.2402 7.25 12.5C7.25 13.7598 7.75045 14.968 8.64124 15.8588C9.53204 16.7496 10.7402 17.25 12 17.25C13.2598 17.25 14.468 16.7496 15.3588 15.8588C16.2496 14.968 16.75 13.7598 16.75 12.5C16.75 11.2402 16.2496 10.032 15.3588 9.14124C14.468 8.25045 13.2598 7.75 12 7.75ZM8.75 12.5C8.75 11.638 9.09241 10.8114 9.7019 10.2019C10.3114 9.59241 11.138 9.25 12 9.25C12.862 9.25 13.6886 9.59241 14.2981 10.2019C14.9076 10.8114 15.25 11.638 15.25 12.5C15.25 13.362 14.9076 14.1886 14.2981 14.7981C13.6886 15.4076 12.862 15.75 12 15.75C11.138 15.75 10.3114 15.4076 9.7019 14.7981C9.09241 14.1886 8.75 13.362 8.75 12.5Z" fill="black"/>
<path fill-rule="evenodd" clip-rule="evenodd" d="M17.2585 3.33297C13.7639 2.94557 10.2372 2.94557 6.74254 3.33297C4.73054 3.55797 3.10554 5.14297 2.86954 7.16497C2.45494 10.7096 2.45494 14.2904 2.86954 17.835C3.10554 19.857 4.72954 21.442 6.74254 21.667C10.2372 22.054 13.7639 22.054 17.2585 21.667C19.2705 21.442 20.8955 19.857 21.1315 17.835C21.5462 14.2904 21.5462 10.7096 21.1315 7.16497C20.8955 5.14297 19.2715 3.55797 17.2585 3.33297ZM6.90854 4.82297C10.2928 4.44784 13.7082 4.44784 17.0925 4.82297C18.4225 4.97297 19.4875 6.02197 19.6425 7.33997C20.0435 10.7683 20.0435 14.2317 19.6425 17.66C19.5624 18.305 19.2671 18.9042 18.8044 19.3607C18.3417 19.8172 17.7386 20.1045 17.0925 20.176C13.7082 20.5511 10.2928 20.5511 6.90854 20.176C6.26248 20.1045 5.6594 19.8172 5.1967 19.3607C4.734 18.9042 4.43872 18.305 4.35854 17.66C3.95759 14.2317 3.95759 10.7683 4.35854 7.33997C4.43872 6.69493 4.734 6.09575 5.1967 5.63922C5.6594 5.1827 6.26248 4.89448 6.90854 4.82297Z" fill="black"/>
</svg>
