<svg width="78" height="18" viewBox="0 0 78 18" fill="none" xmlns="http://www.w3.org/2000/svg">
<path d="M4.656 17L4.512 17.024L1.536 1.448C1.416 0.871999 1.08 0.631999 0.528 0.439999L0.48 0.415999L0.528 0.199999H3.168L3.12 0.415999L3.096 0.439999C2.76 0.535999 2.592 0.871999 2.592 1.184C2.592 1.28 2.592 1.352 2.616 1.424L5.232 15.248L10.056 6.944L9 1.448C8.88 0.871999 8.544 0.631999 7.992 0.439999L7.944 0.415999L7.992 0.199999H10.68L10.632 0.415999L10.608 0.439999C10.248 0.535999 10.08 0.871999 10.08 1.184C10.08 1.28 10.08 1.352 10.104 1.424L10.848 5.552L13.224 1.496C13.344 1.304 13.416 1.088 13.416 0.871999C13.416 0.704 13.368 0.487999 13.2 0.439999L13.176 0.415999L13.2 0.199999H15.264L15.216 0.415999L15.192 0.439999C14.568 0.607999 14.016 0.991999 13.68 1.544L10.968 6.176L12.696 15.248L20.712 1.496C20.808 1.304 20.904 1.088 20.904 0.871999C20.904 0.704 20.832 0.487999 20.688 0.439999L20.64 0.415999L20.688 0.199999H22.728L22.68 0.415999L22.656 0.439999C22.056 0.607999 21.48 0.991999 21.168 1.544L12.144 17L11.976 17.024L10.176 7.568L4.656 17ZM28.9541 8.48L29.0021 9.224C28.5221 11.144 26.7701 17.048 22.8581 17.048C20.6021 17.048 19.1381 15.08 19.2821 11.96C19.4741 7.496 22.7861 3.68 26.4821 3.68C28.3781 3.68 29.5781 4.688 29.5781 6.584V6.608L29.3141 6.896L29.2901 6.8C29.3621 5.144 28.5461 4.256 26.8661 4.256C23.5061 4.256 20.6261 7.688 20.4341 11.792C20.2901 14.72 21.5861 16.424 23.2901 16.424C26.5061 16.424 28.4501 10.352 28.9541 8.48ZM29.1701 16.544V16.832C29.1701 16.904 29.1221 16.952 29.0501 17C29.0021 17.024 28.9301 17.072 28.8341 17.096C28.6901 17.144 28.4981 17.192 28.4261 17.192C27.7301 17.192 27.6581 16.448 27.6581 15.968C27.6581 15.296 27.7781 14.648 27.9221 13.976L29.7941 3.92H30.9221L28.8821 14.48C28.7861 15.032 28.6661 15.632 28.6661 16.208C28.6661 16.28 28.6661 16.424 28.6901 16.568C28.7141 16.64 28.7381 16.688 28.7621 16.736C28.7861 16.784 28.8101 16.808 28.8341 16.808C28.8821 16.808 28.9301 16.784 28.9541 16.736C29.0021 16.712 29.0501 16.664 29.0741 16.64L29.1701 16.544ZM30.5589 17L32.8149 5.6C32.8389 5.48 32.8629 5.336 32.8629 5.192C32.8629 4.52 32.4309 4.4 31.8069 4.4H31.7589L31.8789 4.016H34.1829L32.8869 10.592C34.1589 6.44 36.1509 4.136 38.0949 4.136C38.5509 4.136 39.2709 4.256 39.2709 4.856C39.2709 5.192 38.9349 5.696 38.6229 5.528C38.2629 5.312 37.9029 5.216 37.5429 5.216C35.0229 5.216 32.9829 10.16 32.2869 13.664L31.6389 16.952V17H30.5589ZM38.5539 17L40.7379 5.864C40.7619 5.648 40.8099 5.432 40.8099 5.192C40.8099 4.496 40.4499 4.184 39.7539 4.064H39.6819L39.8259 3.68H42.2019L40.6179 11.984C41.9619 7.064 44.3139 3.68 46.4499 3.68C48.0579 3.68 48.8499 5.624 48.2979 8.528L47.5539 12.488C48.8739 7.304 51.3219 3.68 53.5299 3.68C55.1379 3.68 55.9299 5.624 55.3779 8.528L54.0099 15.872C53.9859 16.016 53.9619 16.136 53.9619 16.28C53.9619 16.328 53.9619 16.472 53.9859 16.568C54.0339 16.688 54.0819 16.76 54.1539 16.76C54.2259 16.76 54.2739 16.712 54.3219 16.64L54.4179 16.52V16.856C54.2739 17.072 54.0579 17.192 53.7939 17.192C53.1699 17.192 52.8819 16.712 52.8819 16.16C52.8819 16.04 52.8819 15.92 52.9059 15.776L54.3219 8.384C54.8019 5.912 54.2499 4.28 53.0739 4.28C50.3379 4.28 47.2659 13.352 46.8819 16.184C46.9059 16.112 46.9059 16.064 46.9059 15.992L46.9539 15.752L46.9299 15.872C46.9059 16.016 46.8819 16.136 46.8819 16.28C46.8819 16.328 46.8819 16.472 46.9059 16.568C46.9539 16.688 47.0019 16.76 47.0739 16.76C47.1459 16.76 47.1939 16.712 47.2419 16.64L47.3379 16.52V16.856C47.1939 17.072 46.9779 17.192 46.7139 17.192C46.0899 17.192 45.8019 16.712 45.8019 16.16C45.8019 16.04 45.8019 15.92 45.8259 15.776L47.2419 8.384C47.7219 5.912 47.1699 4.28 45.9939 4.28C43.5459 4.28 40.8339 11.528 40.0179 15.08L39.8019 16.184V16.16L39.8259 15.992C39.8259 16.064 39.8259 16.112 39.8019 16.16L39.6339 17H38.5539ZM58.0868 1.4C58.0868 0.847999 58.4948 0.368 59.0948 0.368C59.5028 0.368 59.8388 0.584 59.8388 0.991999C59.8388 1.592 59.3828 2.048 58.7828 2.048C58.3748 2.048 58.0868 1.832 58.0868 1.4ZM57.5588 16.544V16.832C57.5588 16.904 57.5108 16.952 57.4388 17C57.3908 17.024 57.3188 17.072 57.2228 17.096C57.0788 17.144 56.8867 17.192 56.8148 17.192C56.1188 17.192 56.0468 16.448 56.0468 15.968C56.0468 15.296 56.1668 14.648 56.2868 13.976L57.8468 5.864C57.8948 5.624 57.9188 5.408 57.9188 5.192C57.9188 4.472 57.5828 4.184 56.8628 4.064H56.8148L56.9348 3.68H59.3348L57.2708 14.48C57.1748 15.032 57.0548 15.632 57.0548 16.208C57.0548 16.28 57.0548 16.424 57.0788 16.568C57.1028 16.64 57.1028 16.688 57.1508 16.736C57.1748 16.784 57.1988 16.808 57.2228 16.808C57.2708 16.808 57.2948 16.784 57.3428 16.736C57.3908 16.712 57.4388 16.664 57.4628 16.64L57.5588 16.544ZM67.1619 15.464H67.1859C67.2099 15.488 67.2579 15.536 67.2579 15.56C67.2579 15.584 67.2579 15.584 67.2579 15.584C67.2579 15.608 67.2579 15.632 67.2339 15.656C66.4899 16.568 64.8339 17.048 63.6819 17.048C60.6099 17.048 59.3619 14.576 59.3619 11.888C59.3619 8.6 61.5219 3.56 65.5299 3.56C67.5219 3.56 68.8179 5 68.6499 6.608C68.3379 9.488 63.4179 11.408 60.8259 9.776L60.8019 9.512C63.2739 10.808 67.0179 9.584 67.4979 6.872C67.7139 5.6 67.2579 3.872 65.5059 3.872C60.9219 3.872 57.8019 16.616 64.2339 16.616C65.4339 16.616 66.2259 16.208 67.1379 15.488L67.1619 15.464ZM68.8423 13.616L68.8903 13.88C69.1303 15.296 70.0903 16.712 71.7223 16.712C73.4743 16.712 75.1543 14.984 75.1543 13.28C75.1543 12.584 74.8423 12.104 74.3863 11.696C73.8823 11.288 73.2343 10.952 72.6343 10.688C71.3863 10.064 70.0903 9.368 70.0903 7.76C70.0903 5.408 72.2743 3.416 74.6503 3.416C75.9223 3.416 77.1943 3.992 77.7703 5.168L77.7943 5.192L77.4343 6.944L77.3863 6.728C77.0503 5.336 76.3063 3.752 74.6263 3.752C72.7783 3.752 71.0983 5.648 71.0983 7.4C71.0983 8.096 71.3863 8.6 71.8663 8.984C72.1063 9.2 72.3463 9.368 72.6583 9.536C72.9463 9.704 73.2583 9.848 73.5943 10.016C74.8663 10.616 76.1623 11.288 76.1623 12.92C76.1623 15.344 74.0023 17.048 71.6503 17.048C70.4023 17.048 68.9863 16.568 68.5063 15.296L68.8423 13.616Z" fill="black"/>
</svg>
